<?xml version="1.0" standalone="no"?>
<!DOCTYPE svg PUBLIC "-//W3C//DTD SVG 20010904//EN"
 "http://www.w3.org/TR/2001/REC-SVG-20010904/DTD/svg10.dtd">
<svg version="1.0" xmlns="http://www.w3.org/2000/svg"
 width="260.000000pt" height="280.000000pt" viewBox="0 0 260.000000 280.000000"
 preserveAspectRatio="xMidYMid meet">

<g transform="translate(0.000000,280.000000) scale(0.100000,-0.100000)"
fill="#000000" stroke="none">
<path d="M1290 2081 c0 -44 5 -83 10 -86 6 -4 10 23 10 74 0 44 -4 83 -10 86
-6 4 -10 -23 -10 -74z"/>
<path d="M1005 1993 c44 -82 63 -108 71 -101 8 8 -85 168 -98 168 -5 0 7 -30
27 -67z"/>
<path d="M1597 1999 c-51 -80 -71 -122 -56 -117 15 5 104 156 96 164 -3 4 -21
-18 -40 -47z"/>
<path d="M730 1821 c0 -12 159 -105 167 -97 8 8 10 7 -80 60 -85 50 -87 51
-87 37z"/>
<path d="M1855 1808 c-77 -42 -156 -91 -152 -95 6 -5 131 57 162 80 25 19 17
29 -10 15z"/>
<path d="M1190 1783 c-29 -11 -67 -38 -107 -78 -67 -68 -93 -127 -93 -216 0
-112 80 -235 183 -280 70 -31 182 -32 248 -2 148 66 221 227 173 379 -24 77
-114 172 -188 197 -61 21 -156 21 -216 0z m249 -38 c168 -92 202 -318 69 -454
-62 -63 -117 -86 -208 -86 -91 0 -150 24 -209 85 -136 140 -95 371 82 460 57
29 68 31 137 28 60 -4 87 -11 129 -33z"/>
<path d="M655 1490 c28 -12 157 -12 175 0 10 7 -19 10 -90 9 -68 0 -98 -3 -85
-9z"/>
<path d="M1770 1490 c18 -12 147 -12 175 0 13 6 -17 9 -85 9 -71 1 -100 -2
-90 -9z"/>
<path d="M807 1212 c-43 -26 -73 -48 -67 -50 11 -4 137 62 160 84 30 29 -14
13 -93 -34z"/>
<path d="M1690 1253 c0 -11 169 -107 176 -100 8 8 -150 107 -171 107 -3 0 -5
-3 -5 -7z"/>
<path d="M1015 1013 c-48 -83 -58 -115 -22 -71 33 41 90 148 78 148 -6 0 -31
-35 -56 -77z"/>
<path d="M1551 1033 c18 -32 40 -70 49 -85 14 -27 30 -37 30 -20 0 16 -91 162
-101 162 -6 0 4 -26 22 -57z"/>
<path d="M1290 940 c0 -60 4 -100 10 -100 6 0 10 40 10 100 0 60 -4 100 -10
100 -6 0 -10 -40 -10 -100z"/>
</g>
</svg>
