<?xml version="1.0" standalone="no"?>
<!DOCTYPE svg PUBLIC "-//W3C//DTD SVG 20010904//EN"
 "http://www.w3.org/TR/2001/REC-SVG-20010904/DTD/svg10.dtd">
<svg version="1.0" xmlns="http://www.w3.org/2000/svg"
 width="522.000000pt" height="380.000000pt" viewBox="0 0 522.000000 380.000000"
 preserveAspectRatio="xMidYMid meet">

<g transform="translate(0.000000,380.000000) scale(0.100000,-0.100000)"
fill="#000000" stroke="none">
<path d="M1985 3485 c-350 -59 -648 -310 -758 -637 -41 -119 -50 -182 -49
-345 0 -102 -4 -163 -10 -163 -21 0 -183 -81 -242 -121 -137 -93 -271 -266
-321 -414 -43 -127 -48 -160 -48 -305 -1 -119 3 -159 21 -223 95 -338 351
-574 697 -643 103 -21 2658 -21 2755 0 259 55 463 221 559 455 132 319 32 687
-244 896 -36 27 -67 58 -70 70 -2 11 -6 67 -9 125 -15 293 -179 572 -430 738
-230 151 -514 197 -783 127 -31 -8 -62 -15 -68 -15 -5 0 -37 37 -70 81 -118
160 -326 305 -505 350 -152 39 -294 47 -425 24z m326 -59 c249 -48 466 -195
602 -408 35 -56 42 -58 160 -25 110 30 345 32 452 3 156 -41 316 -134 428
-249 91 -93 153 -188 201 -307 37 -91 66 -245 66 -357 l0 -82 57 -38 c110 -73
192 -169 250 -293 48 -104 58 -153 58 -295 0 -143 -16 -213 -76 -325 -85 -160
-243 -292 -409 -339 -25 -7 -58 -17 -74 -22 -16 -5 -619 -9 -1362 -9 -1471 0
-1401 -3 -1554 63 -106 46 -183 100 -270 187 -175 178 -260 429 -225 671 48
332 247 572 568 683 l62 21 -5 70 c-17 243 3 390 78 545 61 129 172 261 295
354 77 57 205 113 357 154 54 15 257 14 341 -2z"/>
</g>
</svg>
