<?xml version="1.0" standalone="no"?>
<!DOCTYPE svg PUBLIC "-//W3C//DTD SVG 20010904//EN"
 "http://www.w3.org/TR/2001/REC-SVG-20010904/DTD/svg10.dtd">
<svg version="1.0" xmlns="http://www.w3.org/2000/svg"
 width="260.000000pt" height="280.000000pt" viewBox="0 0 260.000000 280.000000"
 preserveAspectRatio="xMidYMid meet">

<g transform="translate(0.000000,280.000000) scale(0.100000,-0.100000)"
fill="#000000" stroke="none">
<path d="M1336 2138 c-41 -9 -170 -75 -222 -115 -17 -13 -37 -23 -45 -23 -32
0 -121 -63 -154 -109 -20 -27 -49 -54 -65 -61 -75 -31 -139 -156 -125 -243 14
-81 74 -162 139 -187 40 -15 564 -24 738 -13 125 8 140 11 176 36 22 16 52 50
67 80 57 104 30 233 -65 305 -25 20 -53 53 -66 80 -28 59 -198 226 -246 240
-55 17 -91 20 -132 10z m137 -34 c36 -18 77 -53 77 -66 0 -4 -23 -8 -50 -8
-57 0 -104 -20 -120 -50 -14 -26 -7 -25 38 5 47 32 118 34 180 4 47 -23 100
-87 109 -132 3 -16 17 -34 32 -42 38 -20 88 -75 105 -117 42 -99 -6 -220 -109
-276 -27 -15 -77 -17 -435 -17 -444 0 -430 -2 -494 62 -105 104 -78 276 55
344 45 22 84 24 119 4 14 -8 32 -14 40 -14 26 -1 -32 37 -67 44 -18 3 -33 10
-33 15 0 33 113 120 155 120 9 0 37 16 62 35 25 19 51 35 57 35 6 0 36 16 66
35 47 31 62 35 118 35 38 0 76 -6 95 -16z"/>
<path d="M1343 1253 c-41 -52 -112 -159 -120 -179 -6 -15 0 -16 55 -10 34 4
62 5 62 2 0 -3 -27 -47 -60 -97 -54 -82 -68 -109 -56 -109 4 0 130 184 151
219 7 12 -3 13 -59 8 -51 -5 -65 -3 -60 6 4 7 34 52 67 100 60 91 73 128 20
60z"/>
<path d="M1038 1233 c-43 -61 -78 -118 -78 -128 0 -4 18 -5 40 -1 22 3 40 3
40 -1 0 -5 -18 -34 -40 -67 -37 -55 -47 -76 -35 -76 2 0 30 37 60 83 l55 82
-40 3 c-22 2 -40 6 -40 10 0 4 18 33 40 66 36 53 47 76 36 76 -2 0 -19 -21
-38 -47z"/>
<path d="M1587 1208 c-24 -35 -50 -74 -57 -87 -12 -24 -12 -24 29 -18 24 3 41
1 41 -5 0 -5 -13 -28 -29 -51 -39 -58 -53 -87 -43 -87 10 0 112 150 112 164 0
5 -18 6 -40 4 -22 -2 -40 -1 -40 1 0 3 19 33 41 68 55 84 44 92 -14 11z"/>
</g>
</svg>
