<?xml version="1.0" standalone="no"?>
<!DOCTYPE svg PUBLIC "-//W3C//DTD SVG 20010904//EN"
 "http://www.w3.org/TR/2001/REC-SVG-20010904/DTD/svg10.dtd">
<svg version="1.0" xmlns="http://www.w3.org/2000/svg"
 width="219.000000pt" height="230.000000pt" viewBox="0 0 219.000000 230.000000"
 preserveAspectRatio="xMidYMid meet">

<g transform="translate(0.000000,230.000000) scale(0.100000,-0.100000)"
fill="#000000" stroke="none">
<path d="M1271 1583 c1 -10 5 -31 9 -48 7 -27 8 -25 9 18 0 26 -3 47 -9 47 -5
0 -9 -8 -9 -17z"/>
<path d="M1080 1544 c0 -13 44 -84 52 -84 10 0 -27 76 -42 85 -5 3 -10 3 -10
-1z"/>
<path d="M1450 1510 c-24 -46 -26 -63 -4 -35 26 34 45 75 34 75 -5 0 -19 -18
-30 -40z"/>
<path d="M1207 1456 c-54 -15 -111 -57 -145 -106 l-23 -34 -97 -1 c-80 0 -104
-4 -138 -22 -56 -30 -119 -104 -135 -157 -11 -37 -19 -46 -59 -64 -134 -61
-147 -249 -24 -334 l39 -28 390 -2 c428 -3 409 -5 478 60 62 60 71 149 25 234
l-21 36 23 46 c28 58 31 162 6 221 -20 48 -78 110 -126 135 -49 25 -135 32
-193 16z m173 -27 c122 -55 178 -184 134 -312 -9 -26 -20 -49 -25 -52 -15 -10
-109 29 -115 47 -16 50 -141 117 -201 106 -22 -3 -113 70 -113 92 0 28 59 88
112 114 65 33 143 35 208 5z m-355 -144 c17 -7 51 -28 78 -49 37 -28 56 -36
89 -36 58 0 124 -35 155 -81 13 -21 38 -42 54 -48 158 -55 174 -264 25 -332
-38 -17 -71 -19 -396 -19 -203 0 -370 4 -389 10 -39 11 -86 51 -107 92 -18 35
-18 121 1 157 17 34 61 73 101 90 21 9 38 31 64 84 26 52 46 79 77 101 75 52
168 64 248 31z"/>
<path d="M1588 1390 c-34 -19 -57 -40 -42 -40 13 0 84 44 84 52 0 10 2 11 -42
-12z"/>
<path d="M940 1396 c0 -10 71 -47 82 -44 6 2 -4 14 -24 26 -33 20 -58 28 -58
18z"/>
<path d="M1603 1203 c15 -2 39 -2 55 0 15 2 2 4 -28 4 -30 0 -43 -2 -27 -4z"/>
<path d="M1540 1052 c0 -11 80 -56 86 -49 6 6 -65 57 -78 57 -5 0 -8 -4 -8 -8z"/>
</g>
</svg>
