<?xml version="1.0" standalone="no"?>
<!DOCTYPE svg PUBLIC "-//W3C//DTD SVG 20010904//EN"
 "http://www.w3.org/TR/2001/REC-SVG-20010904/DTD/svg10.dtd">
<svg version="1.0" xmlns="http://www.w3.org/2000/svg"
 width="273.000000pt" height="184.000000pt" viewBox="0 0 273.000000 184.000000"
 preserveAspectRatio="xMidYMid meet">

<g transform="translate(0.000000,184.000000) scale(0.100000,-0.100000)"
fill="#000000" stroke="none">
<path d="M1172 1689 c-115 -22 -213 -98 -263 -204 -26 -54 -29 -70 -29 -166
l0 -107 -62 -4 c-74 -5 -128 -28 -176 -76 -103 -104 -96 -283 15 -383 72 -65
56 -64 708 -64 673 0 650 -3 725 82 99 113 90 277 -20 377 -46 41 -71 53 -147
68 -45 9 -53 14 -58 38 -12 54 -60 114 -113 143 -45 24 -74 31 -163 37 -4 0
-14 20 -23 45 -21 55 -94 137 -151 171 -24 13 -74 31 -111 39 -77 16 -72 16
-132 4z m203 -64 c66 -32 137 -109 161 -173 26 -69 28 -71 89 -65 43 5 63 1
100 -17 53 -25 105 -95 105 -140 0 -34 17 -50 55 -50 156 0 274 -150 231 -293
-19 -62 -56 -110 -110 -142 l-43 -25 -597 0 c-531 0 -600 1 -629 16 -131 66
-175 231 -92 344 57 78 152 113 241 91 25 -6 49 -9 54 -6 4 3 0 28 -11 55 -23
61 -25 148 -4 218 22 74 109 164 190 198 79 33 180 29 260 -11z"/>
<path d="M1317 524 c-26 -35 -51 -74 -56 -87 -13 -33 -3 -73 26 -102 69 -68
183 -22 183 73 0 27 -6 39 -70 129 l-35 50 -48 -63z m81 -45 c39 -46 44 -58
38 -84 -9 -37 -34 -55 -76 -55 -43 0 -70 26 -70 68 0 23 57 101 73 102 5 0 20
-14 35 -31z"/>
<path d="M941 548 c-11 -18 -33 -48 -48 -67 -57 -69 -27 -162 56 -176 49 -8
87 8 111 47 26 41 21 88 -15 132 -14 17 -35 46 -46 64 -12 17 -25 32 -29 32
-4 0 -17 -15 -29 -32z m68 -73 c55 -63 35 -135 -37 -135 -75 0 -96 67 -41 133
17 20 34 37 39 37 4 0 22 -16 39 -35z"/>
<path d="M1740 561 c-6 -13 -28 -40 -47 -62 -26 -29 -37 -51 -41 -84 -4 -41
-2 -47 31 -80 50 -50 95 -49 148 4 24 24 39 48 39 63 0 25 -38 89 -88 147
l-29 35 -13 -23z m60 -93 c51 -70 32 -128 -41 -128 -55 0 -75 25 -69 85 2 20
57 85 72 85 4 0 21 -19 38 -42z"/>
<path d="M1139 408 c-7 -13 -27 -40 -45 -62 -39 -46 -49 -84 -34 -130 14 -43
48 -66 99 -66 73 0 125 71 100 136 -11 31 -90 143 -101 143 -4 1 -13 -9 -19
-21z m60 -87 c40 -50 41 -92 5 -120 -35 -28 -69 -26 -99 4 -35 34 -32 68 11
115 20 22 40 40 44 40 5 0 22 -18 39 -39z"/>
<path d="M1501 360 c-58 -78 -71 -118 -48 -153 31 -48 47 -57 98 -57 41 0 54
5 75 27 50 54 45 89 -25 185 l-49 67 -51 -69z m87 -39 c55 -69 36 -141 -38
-141 -74 0 -93 70 -37 138 17 23 35 41 38 41 3 1 20 -17 37 -38z"/>
</g>
</svg>
